<?xml version="1.0" encoding="UTF-8" standalone="no"?>
<svg width="22px" height="17px" viewBox="0 0 22 17" version="1.1" xmlns="http://www.w3.org/2000/svg" xmlns:xlink="http://www.w3.org/1999/xlink">
    <!-- Generator: sketchtool 40 (33762) - http://www.bohemiancoding.com/sketch -->
    <title>32A4BC21-97C3-4E81-8394-A3175A68A1D8</title>
    <desc>Created with sketchtool.</desc>
    <defs></defs>
    <g id="Page-1" stroke="none" stroke-width="1" fill="none" fill-rule="evenodd">
        <g id="holoscribe-marketing-mobile-1" transform="translate(-19.000000, -19.000000)" fill="#000000">
            <g id="ico-menu" transform="translate(19.000000, 19.000000)">
                <g id="Group-20">
                    <path d="M21.8491759,8.35655488 C21.8491759,8.96443456 21.4138492,9.43096908 20.8865696,9.43096908 L1.06615694,9.43096908 C0.538877306,9.43096908 0.103550597,8.96443456 0.103550597,8.35655488 C0.103550597,7.7486752 0.538877306,7.28214068 1.06615694,7.28214068 L20.8542618,7.28214068 C21.4138492,7.28214068 21.8491759,7.7486752 21.8491759,8.35655488 L21.8491759,8.35655488 Z" id="Fill-1"></path>
                    <path d="M21.8491759,15.5193162 C21.8491759,16.1271959 21.4138492,16.5937304 20.8865696,16.5937304 L1.06615694,16.5937304 C0.538877306,16.5937304 0.103550597,16.1271959 0.103550597,15.5193162 C0.103550597,14.9114365 0.538877306,14.444902 1.06615694,14.444902 L20.8542618,14.444902 C21.4138492,14.444902 21.8491759,14.9114365 21.8491759,15.5193162 L21.8491759,15.5193162 Z" id="Fill-2"></path>
                    <path d="M21.8491759,1.19379355 C21.8491759,1.80167323 21.4138492,2.26820775 20.8865696,2.26820775 L1.06615694,2.26820775 C0.538877306,2.26820775 0.103550597,1.80167323 0.103550597,1.19379355 C0.103550597,0.585913877 0.538877306,0.119379355 1.06615694,0.119379355 L20.8542618,0.119379355 C21.4138492,0.119379355 21.8491759,0.585913877 21.8491759,1.19379355 L21.8491759,1.19379355 Z" id="Fill-3"></path>
                </g>
            </g>
        </g>
    </g>
</svg>